<svg width="720" height="220" viewBox="0 0 720 220" fill="none" xmlns="http://www.w3.org/2000/svg" role="img" aria-label="ArcPay logo">
  <defs>
    <linearGradient id="blue" x1="65" y1="170" x2="195" y2="58" gradientUnits="userSpaceOnUse">
      <stop stop-color="#0B63E5"/>
      <stop offset="1" stop-color="#063B9F"/>
    </linearGradient>
    <linearGradient id="orange" x1="30" y1="174" x2="150" y2="38" gradientUnits="userSpaceOnUse">
      <stop stop-color="#FF8200"/>
      <stop offset="1" stop-color="#FFB45F"/>
    </linearGradient>
    <filter id="softShadow" x="-20" y="-20" width="760" height="260" filterUnits="userSpaceOnUse" color-interpolation-filters="sRGB">
      <feDropShadow dx="0" dy="12" stdDeviation="14" flood-color="#061A3F" flood-opacity="0.18"/>
    </filter>
  </defs>

  <g filter="url(#softShadow)">
    <path d="M44 167C50 117 75 58 119 41C143 31 171 39 197 67" stroke="url(#orange)" stroke-width="30" stroke-linecap="round"/>
    <path d="M49 170C81 128 127 102 185 91" stroke="url(#blue)" stroke-width="16" stroke-linecap="round"/>
    <path d="M81 168C110 134 147 113 194 105" stroke="white" stroke-width="10" stroke-linecap="round"/>
    <path d="M163 103C179 115 192 139 198 168" stroke="url(#blue)" stroke-width="31" stroke-linecap="round"/>
    <rect x="178" y="54" width="15" height="15" rx="3" fill="#063B9F"/>
    <rect x="203" y="54" width="15" height="15" rx="3" fill="#0B63E5"/>
    <rect x="203" y="82" width="15" height="15" rx="3" fill="#0B63E5"/>
  </g>

  <text x="270" y="142" fill="#0B4FD8" font-family="Inter, Arial, Helvetica, sans-serif" font-size="96" font-weight="800" letter-spacing="-5">Arc</text>
  <text x="415" y="142" fill="#FF8200" font-family="Inter, Arial, Helvetica, sans-serif" font-size="96" font-weight="800" letter-spacing="-5">Pay</text>
</svg>
